<mxfile host="app.diagrams.net" modified="2023-09-20T22:47:02.969Z" agent="Mozilla/5.0 (Windows NT 10.0; Win64; x64) AppleWebKit/537.36 (KHTML, like Gecko) Chrome/114.0.0.0 YaBrowser/23.7.5.739 Yowser/2.5 Safari/537.36" etag="iN08s7e5PUVkgQnzHiLC" version="21.8.0" type="device">
  <diagram id="prtHgNgQTEPvFCAcTncT" name="Page-1">
    <mxGraphModel dx="956" dy="541" grid="1" gridSize="10" guides="1" tooltips="1" connect="1" arrows="1" fold="1" page="1" pageScale="1" pageWidth="827" pageHeight="1169" math="0" shadow="0">
      <root>
        <mxCell id="0" />
        <mxCell id="1" parent="0" />
        <mxCell id="dNxyNK7c78bLwvsdeMH5-19" value="«3D Editor»" style="swimlane;html=1;childLayout=stackLayout;resizeParent=1;resizeParentMax=0;horizontal=0;startSize=20;horizontalStack=0;" parent="1" vertex="1">
          <mxGeometry x="20" y="30" width="620" height="470" as="geometry" />
        </mxCell>
        <mxCell id="dNxyNK7c78bLwvsdeMH5-20" value="User interface &lt;br&gt;level" style="swimlane;html=1;startSize=40;horizontal=0;" parent="dNxyNK7c78bLwvsdeMH5-19" vertex="1">
          <mxGeometry x="20" width="600" height="120" as="geometry">
            <mxRectangle x="20" width="430" height="30" as="alternateBounds" />
          </mxGeometry>
        </mxCell>
        <mxCell id="f29GK9UGZus-lHb-7esW-28" value="Loading pannel" style="shape=module;align=left;spacingLeft=20;align=center;verticalAlign=top;whiteSpace=wrap;html=1;" vertex="1" parent="dNxyNK7c78bLwvsdeMH5-20">
          <mxGeometry x="80" y="35" width="100" height="50" as="geometry" />
        </mxCell>
        <mxCell id="f29GK9UGZus-lHb-7esW-29" value="Viewing &lt;br&gt;block" style="shape=module;align=left;spacingLeft=20;align=center;verticalAlign=top;whiteSpace=wrap;html=1;" vertex="1" parent="dNxyNK7c78bLwvsdeMH5-20">
          <mxGeometry x="250" y="35" width="100" height="50" as="geometry" />
        </mxCell>
        <mxCell id="f29GK9UGZus-lHb-7esW-30" value="Editing &lt;br&gt;block" style="shape=module;align=left;spacingLeft=20;align=center;verticalAlign=top;whiteSpace=wrap;html=1;" vertex="1" parent="dNxyNK7c78bLwvsdeMH5-20">
          <mxGeometry x="420" y="35" width="100" height="50" as="geometry" />
        </mxCell>
        <mxCell id="f29GK9UGZus-lHb-7esW-35" value="" style="endArrow=classic;html=1;rounded=0;exitX=1;exitY=0.5;exitDx=0;exitDy=0;" edge="1" parent="dNxyNK7c78bLwvsdeMH5-20" source="f29GK9UGZus-lHb-7esW-29">
          <mxGeometry width="50" height="50" relative="1" as="geometry">
            <mxPoint x="660" y="120" as="sourcePoint" />
            <mxPoint x="420" y="60" as="targetPoint" />
          </mxGeometry>
        </mxCell>
        <mxCell id="f29GK9UGZus-lHb-7esW-36" value="" style="endArrow=classic;html=1;rounded=0;entryX=1;entryY=0.5;entryDx=0;entryDy=0;" edge="1" parent="dNxyNK7c78bLwvsdeMH5-20" target="f29GK9UGZus-lHb-7esW-28">
          <mxGeometry width="50" height="50" relative="1" as="geometry">
            <mxPoint x="260" y="60" as="sourcePoint" />
            <mxPoint x="700" y="40" as="targetPoint" />
          </mxGeometry>
        </mxCell>
        <mxCell id="dNxyNK7c78bLwvsdeMH5-21" value="Business logic &lt;br&gt;level" style="swimlane;html=1;startSize=40;horizontal=0;" parent="dNxyNK7c78bLwvsdeMH5-19" vertex="1">
          <mxGeometry x="20" y="120" width="600" height="160" as="geometry" />
        </mxCell>
        <mxCell id="f29GK9UGZus-lHb-7esW-2" value="AppController" style="shape=module;align=left;spacingLeft=20;align=center;verticalAlign=top;whiteSpace=wrap;html=1;" vertex="1" parent="dNxyNK7c78bLwvsdeMH5-21">
          <mxGeometry x="430" y="10" width="116" height="50" as="geometry" />
        </mxCell>
        <mxCell id="f29GK9UGZus-lHb-7esW-3" value="EditorController" style="shape=module;align=left;spacingLeft=20;align=center;verticalAlign=top;whiteSpace=wrap;html=1;" vertex="1" parent="dNxyNK7c78bLwvsdeMH5-21">
          <mxGeometry x="80" y="90" width="360" height="50" as="geometry" />
        </mxCell>
        <mxCell id="f29GK9UGZus-lHb-7esW-15" style="edgeStyle=orthogonalEdgeStyle;rounded=0;orthogonalLoop=1;jettySize=auto;html=1;entryX=1;entryY=0.5;entryDx=0;entryDy=0;" edge="1" parent="dNxyNK7c78bLwvsdeMH5-21" source="f29GK9UGZus-lHb-7esW-2" target="f29GK9UGZus-lHb-7esW-3">
          <mxGeometry relative="1" as="geometry" />
        </mxCell>
        <mxCell id="f29GK9UGZus-lHb-7esW-19" value="Open 3D model" style="shape=module;align=left;spacingLeft=20;align=center;verticalAlign=top;whiteSpace=wrap;html=1;" vertex="1" parent="dNxyNK7c78bLwvsdeMH5-21">
          <mxGeometry x="80" y="20" width="100" height="50" as="geometry" />
        </mxCell>
        <mxCell id="f29GK9UGZus-lHb-7esW-20" value="View 3D model" style="shape=module;align=left;spacingLeft=20;align=center;verticalAlign=top;whiteSpace=wrap;html=1;" vertex="1" parent="dNxyNK7c78bLwvsdeMH5-21">
          <mxGeometry x="200" y="20" width="100" height="50" as="geometry" />
        </mxCell>
        <mxCell id="f29GK9UGZus-lHb-7esW-21" value="Create new 3D model" style="shape=module;align=left;spacingLeft=20;align=center;verticalAlign=top;whiteSpace=wrap;html=1;" vertex="1" parent="dNxyNK7c78bLwvsdeMH5-21">
          <mxGeometry x="310" y="20" width="100" height="50" as="geometry" />
        </mxCell>
        <mxCell id="f29GK9UGZus-lHb-7esW-25" value="" style="endArrow=classic;html=1;rounded=0;" edge="1" parent="dNxyNK7c78bLwvsdeMH5-21" target="f29GK9UGZus-lHb-7esW-19">
          <mxGeometry width="50" height="50" relative="1" as="geometry">
            <mxPoint x="130" y="90" as="sourcePoint" />
            <mxPoint x="730" y="60" as="targetPoint" />
          </mxGeometry>
        </mxCell>
        <mxCell id="f29GK9UGZus-lHb-7esW-26" value="" style="endArrow=classic;html=1;rounded=0;entryX=0.5;entryY=1;entryDx=0;entryDy=0;exitX=0.473;exitY=0.008;exitDx=0;exitDy=0;exitPerimeter=0;" edge="1" parent="dNxyNK7c78bLwvsdeMH5-21" source="f29GK9UGZus-lHb-7esW-3" target="f29GK9UGZus-lHb-7esW-20">
          <mxGeometry width="50" height="50" relative="1" as="geometry">
            <mxPoint x="650" y="140" as="sourcePoint" />
            <mxPoint x="700" y="90" as="targetPoint" />
          </mxGeometry>
        </mxCell>
        <mxCell id="f29GK9UGZus-lHb-7esW-27" value="" style="endArrow=classic;html=1;rounded=0;entryX=0.5;entryY=1;entryDx=0;entryDy=0;exitX=0.779;exitY=-0.02;exitDx=0;exitDy=0;exitPerimeter=0;" edge="1" parent="dNxyNK7c78bLwvsdeMH5-21" source="f29GK9UGZus-lHb-7esW-3" target="f29GK9UGZus-lHb-7esW-21">
          <mxGeometry width="50" height="50" relative="1" as="geometry">
            <mxPoint x="690" y="150" as="sourcePoint" />
            <mxPoint x="740" y="100" as="targetPoint" />
          </mxGeometry>
        </mxCell>
        <mxCell id="dNxyNK7c78bLwvsdeMH5-22" value="Data &lt;br&gt;level" style="swimlane;html=1;startSize=40;horizontal=0;" parent="dNxyNK7c78bLwvsdeMH5-19" vertex="1">
          <mxGeometry x="20" y="280" width="600" height="190" as="geometry" />
        </mxCell>
        <mxCell id="NiHf521bubFI0MAVChAY-2" value="File system in a user&#39;s machine" style="text;html=1;strokeColor=none;fillColor=none;align=center;verticalAlign=middle;whiteSpace=wrap;rounded=0;" parent="dNxyNK7c78bLwvsdeMH5-22" vertex="1">
          <mxGeometry x="440" y="10" width="160" height="30" as="geometry" />
        </mxCell>
        <mxCell id="NiHf521bubFI0MAVChAY-1" value="Renders" style="shape=module;align=left;spacingLeft=20;align=center;verticalAlign=top;whiteSpace=wrap;html=1;" parent="dNxyNK7c78bLwvsdeMH5-22" vertex="1">
          <mxGeometry x="210" y="130" width="100" height="50" as="geometry" />
        </mxCell>
        <mxCell id="NiHf521bubFI0MAVChAY-3" value="Animations" style="shape=module;align=left;spacingLeft=20;align=center;verticalAlign=top;whiteSpace=wrap;html=1;" parent="dNxyNK7c78bLwvsdeMH5-22" vertex="1">
          <mxGeometry x="350" y="130" width="100" height="50" as="geometry" />
        </mxCell>
        <mxCell id="NiHf521bubFI0MAVChAY-4" value="3D models files" style="shape=module;align=left;spacingLeft=20;align=center;verticalAlign=top;whiteSpace=wrap;html=1;" parent="dNxyNK7c78bLwvsdeMH5-22" vertex="1">
          <mxGeometry x="60" y="130" width="100" height="50" as="geometry" />
        </mxCell>
        <mxCell id="f29GK9UGZus-lHb-7esW-6" value="" style="ellipse;whiteSpace=wrap;html=1;align=center;aspect=fixed;fillColor=none;strokeColor=none;resizable=0;perimeter=centerPerimeter;rotatable=0;allowArrows=0;points=[];outlineConnect=1;" vertex="1" parent="dNxyNK7c78bLwvsdeMH5-22">
          <mxGeometry x="105" y="20" width="10" height="10" as="geometry" />
        </mxCell>
        <mxCell id="f29GK9UGZus-lHb-7esW-11" value="WorkRepository" style="shape=module;align=left;spacingLeft=20;align=center;verticalAlign=top;whiteSpace=wrap;html=1;" vertex="1" parent="dNxyNK7c78bLwvsdeMH5-22">
          <mxGeometry x="195" y="40" width="130" height="50" as="geometry" />
        </mxCell>
        <mxCell id="f29GK9UGZus-lHb-7esW-12" value="" style="endArrow=classic;html=1;rounded=0;exitX=0.5;exitY=1;exitDx=0;exitDy=0;entryX=0.5;entryY=0;entryDx=0;entryDy=0;" edge="1" parent="dNxyNK7c78bLwvsdeMH5-22" source="f29GK9UGZus-lHb-7esW-11" target="NiHf521bubFI0MAVChAY-4">
          <mxGeometry width="50" height="50" relative="1" as="geometry">
            <mxPoint x="690" y="150" as="sourcePoint" />
            <mxPoint x="740" y="100" as="targetPoint" />
          </mxGeometry>
        </mxCell>
        <mxCell id="f29GK9UGZus-lHb-7esW-13" value="" style="endArrow=classic;html=1;rounded=0;exitX=0.5;exitY=1;exitDx=0;exitDy=0;" edge="1" parent="dNxyNK7c78bLwvsdeMH5-22" source="f29GK9UGZus-lHb-7esW-11" target="NiHf521bubFI0MAVChAY-1">
          <mxGeometry width="50" height="50" relative="1" as="geometry">
            <mxPoint x="270" y="100" as="sourcePoint" />
            <mxPoint x="120" y="140" as="targetPoint" />
          </mxGeometry>
        </mxCell>
        <mxCell id="f29GK9UGZus-lHb-7esW-18" value="" style="ellipse;whiteSpace=wrap;html=1;align=center;aspect=fixed;fillColor=none;strokeColor=none;resizable=0;perimeter=centerPerimeter;rotatable=0;allowArrows=0;points=[];outlineConnect=1;" vertex="1" parent="dNxyNK7c78bLwvsdeMH5-22">
          <mxGeometry x="255" y="10" width="10" height="10" as="geometry" />
        </mxCell>
        <mxCell id="f29GK9UGZus-lHb-7esW-17" value="" style="rounded=0;orthogonalLoop=1;jettySize=auto;html=1;endArrow=oval;endFill=0;sketch=0;sourcePerimeterSpacing=0;targetPerimeterSpacing=0;endSize=10;exitX=0.5;exitY=1;exitDx=0;exitDy=0;" edge="1" parent="dNxyNK7c78bLwvsdeMH5-19" source="f29GK9UGZus-lHb-7esW-3">
          <mxGeometry relative="1" as="geometry">
            <mxPoint x="670" y="305" as="sourcePoint" />
            <mxPoint x="280" y="290" as="targetPoint" />
          </mxGeometry>
        </mxCell>
        <mxCell id="f29GK9UGZus-lHb-7esW-14" value="" style="endArrow=classic;html=1;rounded=0;entryX=0.5;entryY=0;entryDx=0;entryDy=0;" edge="1" parent="1" target="NiHf521bubFI0MAVChAY-3">
          <mxGeometry width="50" height="50" relative="1" as="geometry">
            <mxPoint x="300" y="400" as="sourcePoint" />
            <mxPoint x="310" y="450" as="targetPoint" />
          </mxGeometry>
        </mxCell>
        <mxCell id="f29GK9UGZus-lHb-7esW-16" value="" style="rounded=0;orthogonalLoop=1;jettySize=auto;html=1;endArrow=halfCircle;endFill=0;endSize=6;strokeWidth=1;sketch=0;exitX=0.5;exitY=0;exitDx=0;exitDy=0;" edge="1" parent="1" source="f29GK9UGZus-lHb-7esW-11">
          <mxGeometry relative="1" as="geometry">
            <mxPoint x="730" y="335" as="sourcePoint" />
            <mxPoint x="300" y="320" as="targetPoint" />
          </mxGeometry>
        </mxCell>
        <mxCell id="f29GK9UGZus-lHb-7esW-32" value="" style="rounded=0;orthogonalLoop=1;jettySize=auto;html=1;endArrow=oval;endFill=0;sketch=0;sourcePerimeterSpacing=0;targetPerimeterSpacing=0;endSize=10;exitX=0.5;exitY=0;exitDx=0;exitDy=0;" edge="1" parent="1" source="f29GK9UGZus-lHb-7esW-2">
          <mxGeometry relative="1" as="geometry">
            <mxPoint x="720" y="205" as="sourcePoint" />
            <mxPoint x="420" y="130" as="targetPoint" />
            <Array as="points">
              <mxPoint x="520" y="140" />
            </Array>
          </mxGeometry>
        </mxCell>
        <mxCell id="f29GK9UGZus-lHb-7esW-34" value="" style="rounded=0;orthogonalLoop=1;jettySize=auto;html=1;endArrow=halfCircle;endFill=0;endSize=6;strokeWidth=1;sketch=0;exitX=0.5;exitY=1;exitDx=0;exitDy=0;" edge="1" parent="1" source="f29GK9UGZus-lHb-7esW-29">
          <mxGeometry relative="1" as="geometry">
            <mxPoint x="340" y="115" as="sourcePoint" />
            <mxPoint x="420" y="130" as="targetPoint" />
            <Array as="points">
              <mxPoint x="360" y="130" />
            </Array>
          </mxGeometry>
        </mxCell>
      </root>
    </mxGraphModel>
  </diagram>
</mxfile>
